# xmcd
#
# Track frame offsets:
#	150
#	17040
#	33205
#	45477
#	58483
#	73228
#	90717
#	104421
#	115507
#	131013
#	148285
#
# Disc length: 2223 seconds
#
# Revision: 0
# Processed by: cddbd v1.5.2PL0 Copyright (c) Steve Scherf et al.
# Submitted via: dBpowerAMP V4.0
#
DISCID=9f08ad0b
DTITLE=Will Sexton - Move The Balance
DYEAR=2009
DGENRE=Blues -  Blues Texas Style
TTITLE0=Move The Balance
TTITLE1=Certain Kind Of Something
TTITLE2=Sunday Driver 
TTITLE3=Pissed Off Nights
TTITLE4=For Always
TTITLE5=Best Intentions
TTITLE6=Beauty Pageant
TTITLE7=Ammesia Lights
TTITLE8=Little Late For Loving My Now
TTITLE9=Close The Airport
TTITLE10=Happy Hour
EXTD=
EXTT0=
EXTT1=
EXTT2=
EXTT3=
EXTT4=
EXTT5=
EXTT6=
EXTT7=
EXTT8=
EXTT9=
EXTT10=
PLAYORDER=
